<svg xmlns="http://www.w3.org/2000/svg" viewBox="0 0 980 640" font-family="Segoe UI, Arial, sans-serif">
  <defs>
    <marker id="a" markerWidth="10" markerHeight="10" refX="8" refY="3" orient="auto">
      <path d="M0,0 L8,3 L0,6 Z" fill="#0e7a66"/>
    </marker>
    <style>
      .box { fill:#ffffff; stroke:#cdd8d4; stroke-width:1.5; }
      .brand { fill:#0e7a66; }
      .soft { fill:#d9f0ea; stroke:#0e7a66; stroke-width:1.5; }
      .ext { fill:#f4f7f6; stroke:#cdd8d4; stroke-width:1.5; }
      .t { fill:#14201d; font-size:13px; font-weight:bold; }
      .s { fill:#3a4a45; font-size:11px; }
      .w { fill:#ffffff; font-size:13px; font-weight:bold; }
      .lbl { fill:#0a5346; font-size:10.5px; font-weight:bold; }
      .flow { stroke:#0e7a66; stroke-width:1.8; fill:none; }
      .note { fill:#8a958f; font-size:11px; }
      .zone { fill:none; stroke:#cdd8d4; stroke-width:1.2; stroke-dasharray:6 5; rx:14; }
    </style>
  </defs>

  <text x="40" y="34" font-size="20" font-weight="bold" fill="#14201d">Autocar Location — Architecture (Option A : n8n)</text>
  <text x="40" y="54" class="note">Règle d'or : l'agent IA qualifie et oriente ; le prix vient TOUJOURS du code déterministe calculer_devis().</text>

  <!-- Zone Front / Netlify -->
  <rect class="zone" x="40" y="78" width="360" height="250"/>
  <text x="52" y="98" class="lbl">FRONT — Next.js (Netlify)</text>
  <rect class="soft" x="60" y="110" width="320" height="40" rx="10"/>
  <text x="74" y="135" class="t">Landing + Chat conversationnel</text>
  <rect class="box" x="60" y="160" width="150" height="40" rx="10"/>
  <text x="74" y="185" class="t">Espace client</text>
  <rect class="box" x="230" y="160" width="150" height="40" rx="10"/>
  <text x="244" y="185" class="t">Dashboard admin</text>
  <rect class="brand" x="60" y="220" width="320" height="86" rx="10"/>
  <text x="74" y="244" class="w">Routes serveur /api/* (logique métier)</text>
  <text x="74" y="266" class="s" fill="#eafaf5">/api/chat · /api/relances · /api/devis-* · /api/admin-*</text>
  <text x="74" y="285" class="s" fill="#eafaf5">recalcul OSRM · persistance · emails · PDF · signature</text>
  <text x="74" y="300" class="s" fill="#eafaf5">prix déterministe (calculerDevis.ts, miroir du moteur)</text>

  <!-- Zone Agent n8n -->
  <rect class="zone" x="430" y="78" width="290" height="250"/>
  <text x="442" y="98" class="lbl">AGENT IA — n8n (tunnel)</text>
  <rect class="box" x="450" y="110" width="250" height="40" rx="10"/>
  <text x="464" y="135" class="t">Webhook /webhook/neotravel</text>
  <rect class="soft" x="450" y="162" width="250" height="48" rx="10"/>
  <text x="464" y="184" class="t">Extraction params — 1 appel LLM</text>
  <text x="464" y="201" class="s">Gemini/Gemma → JSON strict</text>
  <rect class="brand" x="450" y="222" width="250" height="48" rx="10"/>
  <text x="464" y="244" class="w">Nœud Code — DÉTERMINISTE</text>
  <text x="464" y="261" class="s" fill="#eafaf5">calculer_devis() + réponse rédigée</text>
  <rect class="box" x="450" y="282" width="250" height="34" rx="10"/>
  <text x="464" y="304" class="t">Respond to Webhook</text>

  <!-- Zone services externes -->
  <rect class="zone" x="750" y="78" width="200" height="430"/>
  <text x="762" y="98" class="lbl">SERVICES</text>
  <rect class="ext" x="762" y="112" width="176" height="40" rx="10"/>
  <text x="776" y="132" class="t">Supabase</text>
  <text x="776" y="146" class="s">PostgreSQL + Auth + RLS</text>
  <rect class="ext" x="762" y="164" width="176" height="36" rx="10"/>
  <text x="776" y="186" class="t">Resend (emails)</text>
  <rect class="ext" x="762" y="212" width="176" height="36" rx="10"/>
  <text x="776" y="234" class="t">OSRM / Nominatim</text>
  <rect class="ext" x="762" y="260" width="176" height="36" rx="10"/>
  <text x="776" y="282" class="t">pdf-lib (devis PDF)</text>

  <!-- Relances -->
  <rect class="zone" x="430" y="360" width="290" height="120"/>
  <text x="442" y="380" class="lbl">RELANCES — planificateur</text>
  <rect class="box" x="450" y="392" width="250" height="36" rx="10"/>
  <text x="464" y="414" class="t">n8n Schedule (toutes les 5 min)</text>
  <rect class="box" x="450" y="436" width="250" height="34" rx="10"/>
  <text x="464" y="458" class="t">POST /api/relances (secret)</text>

  <!-- flows -->
  <line class="flow" x1="220" y1="150" x2="220" y2="218" marker-end="url(#a)"/>
  <line class="flow" x1="380" y1="250" x2="448" y2="180" marker-end="url(#a)"/>
  <text x="392" y="210" class="lbl">relaie</text>
  <line class="flow" x1="575" y1="150" x2="575" y2="160" marker-end="url(#a)"/>
  <line class="flow" x1="575" y1="210" x2="575" y2="220" marker-end="url(#a)"/>
  <line class="flow" x1="575" y1="270" x2="575" y2="280" marker-end="url(#a)"/>
  <line class="flow" x1="700" y1="296" x2="448" y2="288" marker-end="url(#a)"/>
  <text x="520" y="300" class="lbl">{ reply, devis, escalade }</text>
  <!-- api -> services -->
  <line class="flow" x1="380" y1="250" x2="760" y2="135" marker-end="url(#a)"/>
  <line class="flow" x1="380" y1="270" x2="760" y2="182" marker-end="url(#a)"/>
  <line class="flow" x1="380" y1="285" x2="760" y2="230" marker-end="url(#a)"/>
  <!-- relances -> api & supabase -->
  <line class="flow" x1="450" y1="453" x2="300" y2="306" marker-end="url(#a)"/>
  <line class="flow" x1="700" y1="453" x2="762" y2="150" marker-end="url(#a)"/>

  <text x="40" y="540" class="note">Cas complexe (&gt; 55 passagers, hors France, atypique) ou ambiguïté de ville → escalade humaine (HITL), pas de devis automatique.</text>
  <text x="40" y="560" class="note">Pilotage : dashboard direction (KPIs, courbes, motifs de refus, messagerie HITL, relances, annuaire autocaristes).</text>
</svg>
