<svg viewBox="0 0 1240 940" xmlns="http://www.w3.org/2000/svg" font-family="Inter, 'Segoe UI', sans-serif">
  <style>
    .fr{fill:#fff;stroke:#B5B5B5;stroke-width:1.5}
    .rg{fill:#F4F4F4;stroke:#BBB;stroke-width:1.2;stroke-dasharray:6 4}
    .el{fill:#ECECEC;stroke:#C4C4C4;stroke-width:1}
    .bar{fill:#D7D7D7}.barl{fill:#E6E6E6}
    .btn{fill:#E0E0E0;stroke:#BBB;stroke-width:1}
    .rlbl{font-size:11px;fill:#7A7A7A;font-weight:700;letter-spacing:.6px}
    .cap{font-size:11px;fill:#9A9A9A}
    .num{fill:#D7263D}.numt{font-size:12px;fill:#fff;font-weight:700;text-anchor:middle}
    .ltitle{font-size:13px;fill:#222;font-weight:700;letter-spacing:.5px}
    .note{font-size:12.5px;fill:#333}
    .title{font-size:14px;fill:#333;font-weight:700}
  </style>

  <text x="40" y="28" class="title">NEOTRAVEL — WIREFRAME LOW-FIDELITY · Écran 1 : Landing conversationnelle (desktop)</text>

  <!-- ===== MOCK FRAME ===== -->
  <rect x="40" y="45" width="840" height="855" rx="6" class="fr"/>
  <!-- browser bar -->
  <rect x="40" y="45" width="840" height="26" rx="6" fill="#EDEDED"/>
  <circle cx="58" cy="58" r="4" fill="#C9C9C9"/><circle cx="72" cy="58" r="4" fill="#C9C9C9"/><circle cx="86" cy="58" r="4" fill="#C9C9C9"/>
  <rect x="110" y="50" width="320" height="16" rx="8" fill="#fff" stroke="#D5D5D5"/>
  <text x="120" y="62" class="cap">autocar-location.axel-momper.fr</text>

  <!-- header -->
  <rect x="70" y="92" width="120" height="32" rx="4" class="el"/><text x="130" y="112" class="cap" text-anchor="middle">logo</text>
  <rect x="470" y="104" width="55" height="9" rx="4" class="bar"/>
  <rect x="540" y="104" width="70" height="9" rx="4" class="bar"/>
  <rect x="625" y="104" width="55" height="9" rx="4" class="bar"/>
  <rect x="730" y="90" width="120" height="36" rx="18" class="btn"/><text x="790" y="113" class="cap" text-anchor="middle">Espace pro</text>

  <!-- hero title -->
  <rect x="235" y="155" width="450" height="22" rx="4" class="bar"/>
  <rect x="305" y="186" width="310" height="22" rx="4" class="bar"/>
  <rect x="320" y="222" width="280" height="12" rx="4" class="barl"/>

  <!-- conversation region (KEY) -->
  <rect x="165" y="255" width="590" height="195" rx="8" class="rg"/>
  <text x="180" y="275" class="rlbl">ZONE DE CONVERSATION</text>
  <circle cx="200" cy="312" r="14" class="el"/>
  <rect x="222" y="295" width="440" height="56" rx="12" class="el"/>
  <rect x="240" y="311" width="380" height="8" rx="4" class="bar"/>
  <rect x="240" y="328" width="290" height="8" rx="4" class="bar"/>
  <rect x="200" y="375" width="470" height="46" rx="10" fill="#fff" stroke="#BBB"/>
  <rect x="220" y="394" width="300" height="8" rx="4" class="barl"/>
  <text x="232" y="401" class="cap">Votre message…</text>
  <rect x="678" y="375" width="46" height="46" rx="10" class="btn"/><polygon points="694,388 712,398 694,408" fill="#8C8C8C"/>

  <!-- suggestion chips -->
  <rect x="200" y="463" width="120" height="26" rx="13" fill="#fff" stroke="#C4C4C4"/><rect x="214" y="473" width="90" height="7" rx="3" class="bar"/>
  <rect x="332" y="463" width="120" height="26" rx="13" fill="#fff" stroke="#C4C4C4"/><rect x="346" y="473" width="90" height="7" rx="3" class="bar"/>
  <rect x="464" y="463" width="120" height="26" rx="13" fill="#fff" stroke="#C4C4C4"/><rect x="478" y="473" width="90" height="7" rx="3" class="bar"/>
  <rect x="596" y="463" width="120" height="26" rx="13" fill="#fff" stroke="#C4C4C4"/><rect x="610" y="473" width="90" height="7" rx="3" class="bar"/>

  <!-- reassurance -->
  <circle cx="210" cy="518" r="8" class="el"/><rect x="226" y="514" width="140" height="9" rx="4" class="barl"/>
  <circle cx="400" cy="518" r="8" class="el"/><rect x="416" y="514" width="140" height="9" rx="4" class="barl"/>
  <circle cx="590" cy="518" r="8" class="el"/><rect x="606" y="514" width="110" height="9" rx="4" class="barl"/>

  <!-- comment ça marche -->
  <rect x="165" y="548" width="590" height="150" rx="8" class="rg"/>
  <text x="180" y="568" class="rlbl">COMMENT ÇA MARCHE — 3 ÉTAPES</text>
  <g>
    <circle cx="275" cy="612" r="16" class="el"/><text x="275" y="617" class="cap" text-anchor="middle">1</text>
    <rect x="225" y="640" width="100" height="9" rx="4" class="bar"/>
    <rect x="220" y="657" width="110" height="7" rx="3" class="barl"/><rect x="225" y="670" width="95" height="7" rx="3" class="barl"/>
  </g>
  <g>
    <circle cx="460" cy="612" r="16" class="el"/><text x="460" y="617" class="cap" text-anchor="middle">2</text>
    <rect x="410" y="640" width="100" height="9" rx="4" class="bar"/>
    <rect x="405" y="657" width="110" height="7" rx="3" class="barl"/><rect x="410" y="670" width="95" height="7" rx="3" class="barl"/>
  </g>
  <g>
    <circle cx="645" cy="612" r="16" class="el"/><text x="645" y="617" class="cap" text-anchor="middle">3</text>
    <rect x="595" y="640" width="100" height="9" rx="4" class="bar"/>
    <rect x="590" y="657" width="110" height="7" rx="3" class="barl"/><rect x="595" y="670" width="95" height="7" rx="3" class="barl"/>
  </g>

  <!-- footer -->
  <rect x="70" y="730" width="740" height="150" rx="6" fill="#E4E4E4"/>
  <rect x="90" y="752" width="120" height="9" rx="4" fill="#CFCFCF"/>
  <rect x="90" y="772" width="90" height="7" rx="3" fill="#D6D6D6"/>
  <rect x="90" y="786" width="90" height="7" rx="3" fill="#D6D6D6"/>
  <rect x="300" y="752" width="120" height="9" rx="4" fill="#CFCFCF"/>
  <rect x="300" y="772" width="90" height="7" rx="3" fill="#D6D6D6"/>
  <rect x="520" y="752" width="120" height="9" rx="4" fill="#CFCFCF"/>
  <rect x="520" y="772" width="90" height="7" rx="3" fill="#D6D6D6"/>
  <text x="90" y="858" class="cap">Mentions légales · RGPD · Contact</text>

  <!-- ===== CALLOUT NUMBERS ===== -->
  <circle cx="862" cy="108" r="11" class="num"/><text x="862" y="112" class="numt">1</text>
  <circle cx="703" cy="166" r="11" class="num"/><text x="703" y="170" class="numt">2</text>
  <circle cx="762" cy="266" r="11" class="num"/><text x="762" y="270" class="numt">3</text>
  <circle cx="762" cy="398" r="11" class="num"/><text x="762" y="402" class="numt">4</text>
  <circle cx="762" cy="476" r="11" class="num"/><text x="762" y="480" class="numt">5</text>
  <circle cx="762" cy="518" r="11" class="num"/><text x="762" y="522" class="numt">6</text>
  <circle cx="762" cy="560" r="11" class="num"/><text x="762" y="564" class="numt">7</text>
  <circle cx="832" cy="744" r="11" class="num"/><text x="832" y="748" class="numt">8</text>

  <!-- ===== LEGEND ===== -->
  <text x="908" y="70" class="ltitle">ANNOTATIONS</text>
  <line x1="908" y1="80" x2="1200" y2="80" stroke="#DDD"/>

  <circle cx="918" cy="112" r="10" class="num"/><text x="918" y="116" class="numt">1</text>
  <text x="938" y="110" class="note">En-tête minimal : logo,</text>
  <text x="938" y="126" class="note">navigation courte, accès pro.</text>

  <circle cx="918" cy="160" r="10" class="num"/><text x="918" y="164" class="numt">2</text>
  <text x="938" y="158" class="note">Titre orienté besoin</text>
  <text x="938" y="174" class="note">(pas un slogan vague).</text>

  <circle cx="918" cy="214" r="10" class="num"/><text x="918" y="218" class="numt">3</text>
  <text x="938" y="206" class="note">ZONE DE CONVERSATION =</text>
  <text x="938" y="222" class="note">pièce maîtresse, visible sans</text>
  <text x="938" y="238" class="note">scroll. Remplace le formulaire.</text>

  <circle cx="918" cy="282" r="10" class="num"/><text x="918" y="286" class="numt">4</text>
  <text x="938" y="274" class="note">Champ de saisie = point</text>
  <text x="938" y="290" class="note">d'entrée. L'agent pose ses</text>
  <text x="938" y="306" class="note">questions ici.</text>

  <circle cx="918" cy="344" r="10" class="num"/><text x="918" y="348" class="numt">5</text>
  <text x="938" y="336" class="note">Suggestions cliquables :</text>
  <text x="938" y="352" class="note">pré-remplissent le message.</text>

  <circle cx="918" cy="392" r="10" class="num"/><text x="918" y="396" class="numt">6</text>
  <text x="938" y="384" class="note">Réassurance : depuis 2010,</text>
  <text x="938" y="400" class="note">partenaires qualifiés, gratuit.</text>

  <circle cx="918" cy="440" r="10" class="num"/><text x="918" y="444" class="numt">7</text>
  <text x="938" y="432" class="note">« Comment ça marche »</text>
  <text x="938" y="448" class="note">en 3 étapes simples.</text>

  <circle cx="918" cy="488" r="10" class="num"/><text x="918" y="492" class="numt">8</text>
  <text x="938" y="486" class="note">Footer : mentions, RGPD,</text>
  <text x="938" y="502" class="note">contact.</text>

  <line x1="908" y1="540" x2="1200" y2="540" stroke="#DDD"/>
  <text x="908" y="566" class="rlbl">INTENTION</text>
  <text x="908" y="588" class="note">La conversation EST l'interface</text>
  <text x="908" y="604" class="note">(inspiration Mindtrip.ai) : le</text>
  <text x="908" y="620" class="note">prospect parle, l'IA guide et</text>
  <text x="908" y="636" class="note">qualifie. Pas un widget en coin.</text>
</svg>
